<svg width="24" height="24" viewBox="0 0 24 24" fill="none" xmlns="http://www.w3.org/2000/svg">
<g clip-path="url(#clip0_1_75)">
<path d="M1.7262 1.71423H5.59073L6.96744 15.4021C7.02466 15.7795 7.21632 16.1234 7.50712 16.3706C7.7979 16.6178 8.16824 16.7515 8.54985 16.7472H18.5191C18.8642 16.7652 19.2057 16.6698 19.4913 16.4755C19.7771 16.2812 19.9914 15.9987 20.1015 15.6712L22.2061 9.34149C22.2846 9.10352 22.3055 8.8503 22.2669 8.60272C22.2284 8.35512 22.1316 8.12021 21.9846 7.91731C21.8314 7.7016 21.6265 7.52774 21.3888 7.41162C21.1511 7.29552 20.888 7.24087 20.6237 7.2527H6.14458" stroke="black" stroke-width="2" stroke-linecap="round" stroke-linejoin="round"/>
<path d="M18.2501 22.2857C17.8132 22.2857 17.4589 21.9314 17.4589 21.4945C17.4589 21.0576 17.8132 20.7032 18.2501 20.7032C18.687 20.7032 19.0413 21.0576 19.0413 21.4945C19.0413 21.9314 18.687 22.2857 18.2501 22.2857Z" stroke="black" stroke-width="2" stroke-linecap="round" stroke-linejoin="round"/>
<path d="M7.96437 22.2857C7.52738 22.2857 7.17316 21.9314 7.17316 21.4945C7.17316 21.0576 7.52738 20.7032 7.96437 20.7032C8.40133 20.7032 8.75557 21.0576 8.75557 21.4945C8.75557 21.9314 8.40133 22.2857 7.96437 22.2857Z" stroke="black" stroke-width="2" stroke-linecap="round" stroke-linejoin="round"/>
</g>
<defs>
<clipPath id="clip0_1_75">
<rect width="24" height="24" fill="white"/>
</clipPath>
</defs>
</svg>
