<svg width="30" height="29" viewBox="0 0 30 29" fill="none" xmlns="http://www.w3.org/2000/svg">
<g clip-path="url(#clip0_110_1835)">
<path d="M0.000457764 12.6705C0.000457764 24.3838 -0.0288391 23.5285 0.381317 24.3951C0.627411 24.9106 0.867645 25.2504 1.27194 25.6412C2.39108 26.7231 4.07272 27.1479 5.6196 26.7344C7.2778 26.2869 8.56686 24.8652 8.81296 23.2113L8.85397 22.9395H11.9301H15.0005V23.0924C15.0005 23.3586 15.1821 23.9703 15.393 24.4121C16.2895 26.3039 18.5278 27.3008 20.6137 26.7344C22.2778 26.2869 23.5669 24.8652 23.813 23.2113L23.854 22.9395H26.9301H30.0005V18.6178L30.0063 14.3018L28.0903 9.18711L26.1684 4.07813H22.6411H19.1137L18.9262 3.76094C18.5454 3.10958 17.7485 2.50918 16.8755 2.23164C16.5708 2.12969 16.1372 2.12403 8.27975 2.10703L0.000457764 2.09571V12.6705ZM16.559 4.01016C16.934 4.17442 17.2973 4.53125 17.4731 4.89942L17.6079 5.18262L17.6255 9.75918L17.643 14.3357L14.8423 14.3188C12.1235 14.3018 12.0356 14.2961 11.7719 14.1828C11.2387 13.9393 10.7934 13.4352 10.6762 12.9254L10.6176 12.6875H11.4907H12.3637V11.8096V10.9373L9.94967 10.9203L7.52975 10.9033L7.19577 10.7447C6.77975 10.5465 6.43991 10.1783 6.311 9.79317C6.12936 9.24942 6.02975 9.28907 7.52975 9.28907H8.84811V8.4168V7.54453L6.46335 7.52188C4.18991 7.49922 4.05514 7.49356 3.68014 7.37461C3.24069 7.23301 2.68991 6.86485 2.41452 6.53067C2.30905 6.40039 2.13913 6.12286 2.03366 5.90762C1.85202 5.53379 1.84616 5.49414 1.82858 4.68418L1.80515 3.85157L9.03561 3.8629L16.2602 3.87989L16.559 4.01016ZM25.2016 6.69493L25.5239 7.56153L23.3383 7.57852L21.1528 7.58985V11.4697V15.3496H24.6684H28.184V16.5391V17.7285H26.8657H25.5473V18.6064V19.4844H26.8657H28.184V20.3057V21.127H25.8872H23.5844L23.4731 20.8607C23.0454 19.8525 21.9907 18.9236 20.8715 18.5555C20.5258 18.4422 19.7583 18.2949 19.5063 18.2949C19.477 18.2949 19.4536 15.8537 19.4536 12.0645V5.83399H22.1665H24.8794L25.2016 6.69493ZM2.61374 8.86426C3.04147 9.05684 3.51608 9.18145 3.97311 9.2211L4.36569 9.26075L4.40671 9.6459C4.57663 11.1242 5.67819 12.2967 7.18991 12.6025C7.41257 12.6479 7.85788 12.6875 8.186 12.6875H8.78366L8.81882 12.9537C8.87741 13.3672 9.10592 14.0129 9.32858 14.3697C9.73874 15.0494 10.5415 15.6611 11.3676 15.933C11.7368 16.052 11.8423 16.0576 14.6958 16.0746L17.6372 16.0916V17.3773V18.6631L17.2387 18.8613C16.6294 19.1615 15.8032 19.9885 15.4692 20.6285L15.2114 21.127H11.9008H8.58444L8.47311 20.8607C8.29147 20.4416 7.82272 19.8072 7.44186 19.4617C6.02389 18.193 3.98483 17.9607 2.2446 18.8613L1.81686 19.0822V13.758V8.43379L2.06882 8.58106C2.20358 8.66602 2.44968 8.79063 2.61374 8.86426ZM26.8423 11.0732C27.1938 12.0078 27.5454 12.9424 27.6274 13.152L27.7739 13.5371H25.3715H22.9692V11.4414V9.34571L24.5864 9.35703L26.2094 9.37403L26.8423 11.0732ZM5.2446 20.2207C6.42819 20.6115 7.18991 21.8236 6.99069 22.9734C6.79733 24.0553 5.93014 24.8992 4.81686 25.0918C3.7153 25.2844 2.561 24.6727 2.03952 23.6305C1.6821 22.9055 1.75241 21.9539 2.22702 21.2516C2.88327 20.2717 4.12546 19.8469 5.2446 20.2207ZM20.2446 20.2207C21.4282 20.6115 22.1899 21.8236 21.9907 22.9734C21.7973 24.0553 20.9301 24.8992 19.8169 25.0918C18.7153 25.2844 17.561 24.6727 17.0395 23.6305C16.6821 22.9055 16.7524 21.9539 17.227 21.2516C17.8833 20.2717 19.1255 19.8469 20.2446 20.2207Z" fill="#F4793F"/>
</g>
<defs>
<clipPath id="clip0_110_1835">
<rect width="30" height="29" fill="white"/>
</clipPath>
</defs>
</svg>
