<svg width="30" height="30" viewBox="0 0 30 30" fill="none" xmlns="http://www.w3.org/2000/svg">
<g clip-path="url(#clip0_112_1853)">
<path d="M26.1355 1.52927C21.5309 2.74216 21.1824 2.80662 17.1663 3.12888C14.1041 3.38083 13.59 3.45115 12.9844 3.68552C11.979 4.08982 11.8361 4.20701 9.2082 6.86131L6.78022 9.31638H3.4439H0.113281V16.2011V23.0859H1.05591C1.98711 23.0859 1.99854 23.0859 2.0271 23.2207C2.03853 23.291 2.19277 24.1523 2.36416 25.125C2.53555 26.1035 2.68979 26.9179 2.70122 26.9355C2.71836 26.9531 6.60884 26.0918 11.3505 25.0254L19.9713 23.0859H21.3824H22.7935V19.0722V15.0586H23.3305C25.1986 15.0586 27.2209 14.2383 28.7634 12.8496L29.249 12.416V6.56248C29.249 3.33982 29.2433 0.708961 29.2376 0.708961C29.2262 0.714821 27.8322 1.08396 26.1355 1.52927ZM27.5352 7.2949V11.5429L27.0896 11.8828C25.9013 12.7851 24.8387 13.1484 23.1248 13.248C21.4566 13.3359 21.6223 13.2773 18.5088 14.9707C17.3319 15.6094 16.6292 15.9609 16.475 15.9785C16.1322 16.0254 15.8123 15.8379 15.6523 15.5039C15.4924 15.1582 15.5381 14.8769 15.818 14.584C15.9323 14.4668 17.4748 13.2949 19.2515 11.9824C21.0282 10.6699 22.525 9.55076 22.5821 9.49216C22.6849 9.39256 22.6735 9.36326 22.1879 8.67771C21.9137 8.29099 21.668 7.96873 21.6452 7.96873C21.628 7.96873 21.1996 8.27341 20.7025 8.64256L19.7942 9.31638H14.5669H9.3396L11.0535 7.57029C12.5388 6.05271 12.8187 5.7949 13.1672 5.61326C13.8414 5.26169 14.0356 5.22654 16.6521 5.00974C21.3881 4.61716 21.8051 4.54685 25.4785 3.58005C26.564 3.2988 27.4666 3.05857 27.4952 3.05271C27.518 3.05271 27.5352 4.95701 27.5352 7.2949ZM3.42676 11.1621C3.42676 11.2558 3.12397 11.7832 2.94687 11.9941C2.7355 12.2402 2.08994 12.7148 1.95854 12.7148C1.90142 12.7148 1.88428 12.5215 1.88428 11.9238V11.1328H2.65552C3.07827 11.1328 3.42676 11.1445 3.42676 11.1621ZM17.2748 11.1855C17.2462 11.209 16.6178 11.6836 15.8751 12.2344C14.8868 12.9668 14.4641 13.3183 14.3155 13.5234L14.1099 13.8105L13.8528 13.5703C12.5445 12.3574 10.6307 12.2812 9.25391 13.3945C8.74546 13.8047 8.31699 14.4375 8.11704 15.0703L8.04277 15.2929H6.9916H5.94043V16.2011V17.1094H6.9916H8.04277L8.11704 17.3261C8.31699 17.9707 8.78545 18.6504 9.28247 19.0371C11.0935 20.4433 13.6128 19.834 14.6126 17.7539L14.824 17.3144L15.161 17.5019C15.6181 17.748 16.0637 17.8359 16.6292 17.7949C17.172 17.7597 17.2691 17.7129 19.4971 16.5058C20.3083 16.0605 20.9825 15.7031 20.9996 15.7031C21.011 15.7031 21.0225 16.166 21.0225 16.7285C21.0225 17.5019 21.0053 17.7597 20.9539 17.7773C19.4114 18.164 18.206 19.3066 17.7318 20.8301L17.6062 21.2402L11.4362 21.2578L5.26631 21.2695L5.22632 21.0527C5.10063 20.3613 4.54648 19.4179 3.91235 18.8203C3.49531 18.4277 2.71265 17.9824 2.22134 17.8476L1.91284 17.7715V16.2011V14.6308L2.20991 14.5547C2.58125 14.4551 3.24395 14.1269 3.59243 13.8633C4.36367 13.2715 5.07778 12.1816 5.22632 11.3496L5.26631 11.1328H11.2991C14.6754 11.1328 17.3091 11.1562 17.2748 11.1855ZM12.2075 14.6074C13.2586 15.164 13.4986 16.5644 12.6931 17.4199C12.5788 17.5429 12.356 17.7187 12.196 17.8008C11.8019 18.0176 11.122 18.0234 10.7393 17.8183C10.3908 17.6308 10.0766 17.3144 9.89375 16.9629C9.68237 16.5586 9.67666 15.8613 9.87661 15.4687C10.1166 14.9941 10.5336 14.6308 11.0249 14.4668C11.282 14.3789 11.9047 14.4551 12.2075 14.6074ZM2.427 19.957C2.58696 20.0625 2.7812 20.2207 2.86689 20.3144C3.02114 20.4844 3.42676 21.1347 3.42676 21.2226C3.42676 21.2461 3.07827 21.2695 2.65552 21.2695H1.88428V20.4726V19.6816L2.01567 19.7226C2.08423 19.7402 2.27275 19.8457 2.427 19.957ZM21.0225 20.4785V21.2695H20.2512C19.8285 21.2695 19.48 21.2578 19.48 21.2402C19.48 21.1406 19.7885 20.6191 19.9713 20.3965C20.1884 20.1387 20.8111 19.6875 20.9539 19.6875C21.0053 19.6875 21.0225 19.8867 21.0225 20.4785ZM11.3677 23.1504C10.7907 23.3027 4.14087 24.7793 4.12373 24.7558C4.09517 24.7324 3.82666 23.2734 3.82666 23.1562C3.82666 23.1035 4.63789 23.0859 7.7 23.0918C10.1166 23.0976 11.4934 23.1152 11.3677 23.1504Z" fill="#F4793F"/>
<path d="M4.58174 2.94141L4.59888 4.83398L5.47295 4.85156L6.34131 4.86914V2.95898V1.05469H5.45581H4.57031L4.58174 2.94141Z" fill="#F4793F"/>
<path d="M0 6.12305V7.03125H1.82812H3.65625V6.12305V5.21484H1.82812H0V6.12305Z" fill="#F4793F"/>
<path d="M25.5371 23.6426V24.5508H27.3938H29.2505V23.6426V22.7344H27.3938H25.5371V23.6426Z" fill="#F4793F"/>
<path d="M23.4219 27.3926V29.2969H24.3074H25.1929V27.3926V25.4883H24.3074H23.4219V27.3926Z" fill="#F4793F"/>
</g>
<defs>
<clipPath id="clip0_112_1853">
<rect width="29.25" height="30" fill="white"/>
</clipPath>
</defs>
</svg>
