<svg width="30" height="30" viewBox="0 0 30 30" fill="none" xmlns="http://www.w3.org/2000/svg">
<g clip-path="url(#clip0_112_1905)">
<path d="M2.34375 9.66797V19.3359H5.77148H9.19922V20.2148V21.0938H4.59961H0V25.5469V30H15H30V25.5469V21.0938H25.4004H20.8008V20.2148V19.3359H24.2285H27.6562V9.66797V0H15H2.34375V9.66797ZM25.8398 9.63867V17.5195H15H4.16016V9.63867V1.75781H15H25.8398V9.63867ZM18.9844 20.2148V21.0938H15H11.0156V20.2148V19.3359H15H18.9844V20.2148ZM28.2422 25.5762V28.2422H27.3633H26.4844V26.3965V24.5508H15H3.51562V26.3965V28.2422H2.63672H1.75781V25.5762V22.9102H15H28.2422V25.5762ZM24.668 27.3047V28.2422H15H5.33203V27.3047V26.3672H15H24.668V27.3047Z" fill="#F4793F"/>
<path d="M5.85938 9.66797V15.8203H15H24.1406V9.66797V3.51562H15H5.85938V9.66797ZM22.3242 9.63867V14.0039H15H7.67578V9.63867V5.27344H15H22.3242V9.63867Z" fill="#F4793F"/>
<path d="M9.60938 7.91016V8.78906H11.4258H13.2422V7.91016V7.03125H11.4258H9.60938V7.91016Z" fill="#F4793F"/>
<path d="M15 7.91016V8.78906H15.9082H16.8164V7.91016V7.03125H15.9082H15V7.91016Z" fill="#F4793F"/>
<path d="M18.5156 7.91016V8.78906H19.4238H20.332V7.91016V7.03125H19.4238H18.5156V7.91016Z" fill="#F4793F"/>
<path d="M9.60938 11.3965V12.3047H11.4258H13.2422V11.3965V10.4883H11.4258H9.60938V11.3965Z" fill="#F4793F"/>
<path d="M15 11.3965V12.3047H15.9082H16.8164V11.3965V10.4883H15.9082H15V11.3965Z" fill="#F4793F"/>
<path d="M18.5156 11.3965V12.3047H19.4238H20.332V11.3965V10.4883H19.4238H18.5156V11.3965Z" fill="#F4793F"/>
</g>
<defs>
<clipPath id="clip0_112_1905">
<rect width="30" height="30" fill="white"/>
</clipPath>
</defs>
</svg>
