<svg width="31" height="31" viewBox="0 0 31 31" fill="none" xmlns="http://www.w3.org/2000/svg">
<path d="M12.4245 0.114997C12.7877 0.260309 13.2661 0.605427 13.5022 0.908161C13.5991 1.03531 13.7747 1.32593 13.8836 1.55601L14.0774 1.96773L14.0956 3.13023L14.1198 4.29273L15.0159 4.3109C15.8756 4.32906 15.9241 4.33511 16.0754 4.48043C16.5295 4.90425 16.5295 5.50972 16.0754 5.93355C15.9241 6.07886 15.8756 6.08492 15.0219 6.10308L14.1258 6.12125L14.0229 6.64195C13.6838 8.37965 12.5213 9.80855 10.929 10.4564C10.1297 10.7834 9.68169 10.856 8.7311 10.8197C7.74419 10.7894 7.38696 10.6986 6.56958 10.2929C5.00747 9.51793 3.97817 8.04664 3.75415 6.28472C3.67544 5.64293 3.67544 2.59742 3.75415 2.17359C3.91157 1.3441 4.48071 0.581208 5.22544 0.211872L5.64927 -4.19617e-05H8.89458C11.9038 0.00601292 12.1581 0.0120678 12.4245 0.114997ZM6.07309 1.88902C5.97016 1.94957 5.8188 2.08277 5.74009 2.19175C5.61294 2.37945 5.60083 2.45816 5.58266 3.34215L5.55845 4.29879H8.89458H12.2307V3.39058C12.2307 2.41578 12.2004 2.27652 11.9098 2.00406C11.825 1.92535 11.6616 1.84058 11.5526 1.81636C11.4436 1.78609 10.2084 1.76793 8.80981 1.77398C6.52114 1.78609 6.24868 1.7982 6.07309 1.88902ZM5.6311 6.21812C5.6311 6.27867 5.6977 6.50875 5.77641 6.72672C6.1397 7.76812 6.98735 8.55523 8.08325 8.87008C8.35571 8.94879 8.58579 8.96695 9.07622 8.94879C9.62114 8.92457 9.78462 8.88824 10.1721 8.73082C11.1711 8.30699 11.928 7.4109 12.1641 6.35738L12.2186 6.11519H8.92485C5.82485 6.11519 5.6311 6.12125 5.6311 6.21812Z" fill="#F4793F"/>
<path d="M25.0683 9.30602C25.1167 9.32419 25.2257 9.39684 25.2984 9.4695C25.6193 9.76013 25.6132 9.66325 25.6132 13.4111C25.6132 17.1832 25.6253 17.056 25.2802 17.3769L25.1167 17.5283L21.4779 17.5465C17.9056 17.5586 17.8269 17.5586 17.6332 17.4375C17.5181 17.3648 17.3849 17.2074 17.3183 17.056C17.2033 16.8138 17.1972 16.6261 17.1972 13.4111C17.1972 10.1961 17.2033 10.0084 17.3183 9.76618C17.3849 9.61481 17.5181 9.45739 17.6332 9.38474C17.8269 9.2697 17.9238 9.26364 21.4052 9.2697C23.3669 9.2697 25.0199 9.28786 25.0683 9.30602ZM22.3437 11.3949C22.3437 11.964 21.9744 12.3515 21.4355 12.3515C20.8845 12.3515 20.4667 11.9156 20.4667 11.3404V11.08H19.7705H19.0742V13.4111V15.7422H21.4052H23.7363V13.4111V11.08H23.04H22.3437V11.3949Z" fill="#F4793F"/>
<path d="M10.1426 12.7754C10.9418 12.9812 11.4746 13.2416 12.1225 13.732C12.2799 13.8471 13.5998 15.167 15.0529 16.6625L17.6988 19.375H21.3437C24.8312 19.375 25.0008 19.381 25.3398 19.4961C26.0785 19.7504 26.6113 20.2287 26.9625 20.9432C27.1502 21.3307 27.1562 21.373 27.1562 22.0996C27.1562 22.8383 27.1502 22.8685 26.9504 23.2803C26.6779 23.8373 26.1996 24.3156 25.6426 24.5881L25.2187 24.7939L20.7141 24.8121C16.7906 24.8242 16.167 24.8121 15.84 24.7334C15.283 24.5881 14.9803 24.4185 14.5201 23.9887L14.1084 23.6012V26.9373C14.1084 30.5519 14.1205 30.4369 13.7814 30.7578C13.6543 30.8728 13.5393 30.9092 13.2426 30.9273C12.7764 30.9515 12.5221 30.8123 12.3525 30.4369C12.2375 30.1947 12.2314 29.9949 12.2314 25.9443V21.706L10.5119 19.9805C9.02246 18.4849 8.78027 18.2185 8.71973 17.9945C8.60469 17.5465 8.8166 17.05 9.2041 16.8926C9.31309 16.8502 9.525 16.826 9.7248 16.8441L10.0639 16.8744L13.067 19.8775C15.7553 22.5598 16.1004 22.8807 16.3184 22.9291C16.4516 22.9533 18.383 22.9775 20.6172 22.9775H24.6738L24.9039 22.8383C25.1824 22.6627 25.3096 22.4265 25.3096 22.0935C25.3096 21.7848 25.1279 21.4699 24.8676 21.3246C24.692 21.2338 24.3408 21.2217 20.8594 21.2096C18.7584 21.1974 16.9844 21.1793 16.9178 21.1611C16.8451 21.143 15.6039 19.926 14.1629 18.4547C12.7219 16.9773 11.3354 15.5908 11.0871 15.3668C9.94883 14.3375 8.41094 14.2224 7.10918 15.0701C6.48555 15.4697 6.01933 16.0752 5.74082 16.832L5.60156 17.2256L5.57129 23.7949C5.54707 28.6144 5.52285 30.3945 5.46836 30.4853C5.29883 30.7881 5.09297 30.9031 4.70547 30.9273C4.22715 30.9515 3.9789 30.8123 3.80937 30.4248C3.69433 30.1644 3.68828 30.007 3.7125 23.6012C3.73066 17.6252 3.73672 17.0076 3.83359 16.6504C4.08789 15.6937 4.4875 14.9611 5.11113 14.3072C5.86797 13.508 6.69746 13.0176 7.70254 12.7754C8.37461 12.6119 9.53711 12.6119 10.1426 12.7754Z" fill="#F4793F"/>
</svg>
