<svg width="30" height="30" viewBox="0 0 30 30" fill="none" xmlns="http://www.w3.org/2000/svg">
<g clip-path="url(#clip0_112_1871)">
<path d="M27.0117 0.615235L26.4023 1.23047L26.5137 1.37109C26.5781 1.45313 26.7305 1.63477 26.8535 1.77539C27.4102 2.4375 27.8965 3.46289 28.0957 4.42969C28.2363 5.09766 28.2246 6.21094 28.0723 6.90234C27.8496 7.92188 27.3574 8.91211 26.7246 9.62109C26.5605 9.80273 26.4258 9.97266 26.4258 10.002C26.4258 10.0723 27.6152 11.25 27.6855 11.25C27.7617 11.25 28.3477 10.5645 28.6582 10.1074C29.25 9.24023 29.7422 8.00391 29.9121 6.96094C30.0234 6.26367 30.0234 4.92188 29.9121 4.28906C29.6602 2.85352 29.1152 1.66406 28.1953 0.527345C27.9785 0.251954 27.7559 0.0234385 27.709 0.0117197C27.6621 0.00586033 27.3516 0.275392 27.0117 0.615235Z" fill="#F4793F"/>
<path d="M24.5391 3.08789L23.9121 3.7207L24.0879 3.92578C24.3516 4.23047 24.5977 4.78711 24.6738 5.22656C24.791 5.92383 24.6035 6.63281 24.1406 7.24219L23.918 7.54102L24.5625 8.17969L25.2012 8.81836L25.4355 8.55469C26.666 7.16602 26.8652 4.95703 25.9043 3.33984C25.6699 2.95898 25.2773 2.46094 25.207 2.46094C25.1836 2.46094 24.8848 2.74219 24.5391 3.08789Z" fill="#F4793F"/>
<path d="M7.91016 7.10742V8.47266L5.05664 10.8105C3.48633 12.0996 2.02148 13.3359 1.79883 13.5645C1.04883 14.3262 0.480469 15.3398 0.169922 16.4648L0.0292969 16.9629L0.0117188 23.4785L-0.00585938 30H4.6582H9.31641V28.0371V26.0742H15.8496H22.3828V15.9082V5.74219H15.1465H7.91016V7.10742ZM17.0508 15.9082V24.2578H13.1836H9.31641V23.1855C9.31641 22.4238 9.33984 22.0254 9.39844 21.8203C9.56836 21.252 9.68555 20.4668 9.7207 19.6523L9.75586 18.8262L10.6406 18.0586C11.6133 17.2148 11.8242 16.9805 12.041 16.5117C12.7793 14.8945 11.8066 12.9902 10.0664 12.6504L9.72656 12.5801V10.0723V7.55859H13.3887H17.0508V15.9082ZM20.5664 15.9082V24.2578H19.7168H18.8672V15.9082V7.55859H19.7168H20.5664V15.9082ZM7.91016 11.9707V13.1074L5.80078 14.8242C4.64062 15.7676 3.69141 16.5469 3.69141 16.5645C3.69141 16.6348 4.77539 17.9297 4.83398 17.9297C4.86328 17.9297 5.80078 17.1855 6.91406 16.2773C8.02734 15.375 9.01758 14.584 9.11133 14.5254C9.46875 14.3027 10.084 14.4609 10.3125 14.8418C10.4883 15.1289 10.5176 15.3809 10.4062 15.6738C10.3184 15.8906 10.1191 16.0898 9.11719 16.957L7.92773 17.9824L7.89258 19.2305C7.86328 20.6016 7.76953 21.0996 7.38281 22.0605C6.9375 23.1855 6.07617 24.2754 5.08008 24.9844L4.68164 25.2656L4.78125 25.4238C5.12695 25.9512 5.70117 26.7188 5.75391 26.7188C5.85352 26.7188 6.63281 26.1152 7.08984 25.6816L7.5 25.3008V26.7715V28.2422H4.66992H1.83398L1.79297 23.2148C1.76367 19.8105 1.76953 18.0234 1.81055 17.6602C1.94531 16.5 2.40234 15.5332 3.17578 14.7832C3.41602 14.543 7.82812 10.8633 7.89844 10.8457C7.9043 10.8398 7.91016 11.3496 7.91016 11.9707Z" fill="#F4793F"/>
<path d="M11.3672 10.2539V11.1328H12.2754H13.1836V10.2539V9.375H12.2754H11.3672V10.2539Z" fill="#F4793F"/>
</g>
<defs>
<clipPath id="clip0_112_1871">
<rect width="30" height="30" fill="white"/>
</clipPath>
</defs>
</svg>
