<svg width="30" height="30" viewBox="0 0 30 30" fill="none" xmlns="http://www.w3.org/2000/svg">
<path d="M3.83781 1.68163C2.33781 1.88671 1.07218 2.84179 0.386633 4.27148C-0.0293826 5.13866 -0.00594513 4.52343 0.011633 14.6777L0.0292111 23.8184L0.163977 24.2519C0.732336 26.0976 2.03312 27.4629 3.79093 28.0723C4.65226 28.3652 4.30069 28.3594 16.2948 28.3594H27.4804V25.1367V21.9141H28.7402H29.9999V18.6035V15.293H28.7402H27.4804V12.0703V8.84765H26.1034H24.7265V5.24413V1.64062L14.373 1.64648C8.67179 1.65234 3.93741 1.66991 3.83781 1.68163ZM22.9687 6.15234V8.84765H22.0898H21.2109V7.00195V5.15624H12.3632H3.51554V6.91405V8.67187L3.29288 8.56054C2.65421 8.23827 2.16788 7.66405 1.93351 6.96679C1.82804 6.65624 1.81046 6.49218 1.82804 6.03515C1.84562 5.5371 1.87491 5.42577 2.06827 5.02148C2.41398 4.2832 3.04093 3.75585 3.81437 3.55077C4.0839 3.4746 5.51359 3.46288 13.5526 3.46288L22.9687 3.45702V6.15234ZM19.453 7.91015V8.84765H12.3632H5.27335V7.91015V6.97265H12.3632H19.453V7.91015ZM2.60734 10.2539C2.80655 10.3476 3.12296 10.4648 3.31046 10.5234C3.64445 10.6289 4.23624 10.6348 14.6952 10.6465L25.7226 10.6641V13.0312V15.3926L25.5527 15.4277C25.1484 15.5098 24.5741 15.8555 24.1698 16.2598C23.4902 16.9336 23.203 17.625 23.203 18.6035C23.203 19.582 23.4902 20.2734 24.1698 20.9473C24.5741 21.3516 25.1484 21.6973 25.5527 21.7793L25.7226 21.8086V24.1758V26.543L15.3105 26.5312L4.89249 26.5137L4.42374 26.3496C2.94132 25.8223 1.98038 24.6152 1.81632 23.0684C1.78116 22.7578 1.75773 19.8281 1.75773 16.1543V9.77929L2.00968 9.93163C2.14445 10.0195 2.41398 10.1601 2.60734 10.2539ZM28.2421 18.6035V20.0976H27.2577C26.162 20.0976 25.8984 20.0449 25.5351 19.7461C24.8554 19.1836 24.8554 18.0234 25.5351 17.4609C25.8925 17.1621 26.1152 17.1211 27.2343 17.1152L28.2421 17.1094V18.6035Z" fill="#F4793F"/>
<path d="M18.3398 23.9355V24.8438H21.1523H23.9648V23.9355V23.0273H21.1523H18.3398V23.9355Z" fill="#F4793F"/>
</svg>
