<svg width="27" height="27" viewBox="0 0 27 27" fill="none" xmlns="http://www.w3.org/2000/svg">
<g clip-path="url(#clip0_110_1829)">
<path d="M8.39056 0.0791264C6.64505 0.474634 5.29505 1.50823 4.53568 3.03225C4.17181 3.76526 4.00306 4.36643 3.97142 5.09944L3.93978 5.69006L3.64447 5.83245C3.23314 6.03284 2.80072 6.48108 2.57923 6.9346C2.40521 7.29319 2.39993 7.31956 2.39993 7.96292C2.39993 8.59573 2.40521 8.63264 2.56868 8.96487C2.65833 9.15471 2.82708 9.41311 2.93783 9.53967C3.16458 9.80862 3.62337 10.1198 3.93978 10.2252C4.1349 10.2885 4.16126 10.3201 4.24564 10.5944C4.49876 11.417 5.18431 12.4084 5.92259 13.0201L6.32865 13.3576V13.8217V14.2805L5.42161 14.3016C4.6306 14.328 4.44603 14.349 4.0347 14.4703C2.13099 15.0399 0.754622 16.411 0.174544 18.3252L0.026888 18.7998L0.0110677 22.6231C-0.010026 26.8735 -0.0258464 26.6678 0.343294 26.8946C0.575325 27.0369 1.00775 27.0369 1.23978 26.8946C1.5931 26.6731 1.58255 26.8313 1.59837 22.8604C1.61419 19.3746 1.61947 19.2639 1.73021 18.8631C2.03079 17.7768 2.76908 16.8592 3.74993 16.3477C4.30892 16.0576 4.82044 15.9364 5.67474 15.8942C6.38138 15.8573 6.38665 15.8573 6.41829 15.9733C6.43411 16.0418 6.53958 16.2844 6.6556 16.5164C7.03001 17.3022 7.8263 17.9455 8.68587 18.167C9.07083 18.2672 9.91458 18.2672 10.2995 18.167C11.1591 17.9455 11.9554 17.3022 12.3298 16.5164C12.4458 16.2844 12.546 16.0524 12.5618 15.9944C12.5829 15.91 12.6462 15.8994 13.2421 15.9047C13.9435 15.9153 14.5025 15.9996 14.5025 16.0998C14.5025 16.1367 14.4656 16.2106 14.4234 16.2633C14.3548 16.353 14.3443 17.0596 14.3443 21.4313C14.3443 26.3092 14.3495 26.5043 14.4445 26.652C14.4972 26.7311 14.6132 26.8471 14.6923 26.8998C14.84 26.9948 15.0509 27 20.6724 27C26.2939 27 26.5048 26.9948 26.6525 26.8998C26.7316 26.8471 26.8476 26.7311 26.9003 26.652C26.9952 26.5043 27.0005 26.3092 27.0005 21.4365C27.0005 16.5639 26.9952 16.3688 26.9003 16.2211C26.8476 16.142 26.7316 16.026 26.6525 15.9733C26.5048 15.8783 26.3202 15.8731 21.9538 15.8731H17.4081L16.9441 15.4987C16.3693 15.0346 15.5044 14.6022 14.8558 14.4492C14.2863 14.3121 13.4267 14.233 12.989 14.2752L12.6568 14.3069V13.8323V13.3576L13.0681 13.0201C13.7906 12.4137 14.4919 11.4012 14.7398 10.5944C14.8294 10.3201 14.8505 10.2885 15.0456 10.2252C15.362 10.1198 15.8208 9.80862 16.0476 9.53967C16.1583 9.41311 16.3271 9.15471 16.4167 8.96487C16.5802 8.63264 16.5855 8.59573 16.5855 7.96292C16.5855 7.31956 16.5802 7.29319 16.4062 6.9346C16.1847 6.48108 15.7523 6.03284 15.341 5.83245L15.0456 5.69006L15.014 5.09944C14.9085 2.84768 13.2738 0.843775 10.9956 0.179321C10.579 0.0580311 10.405 0.0369377 9.62454 0.0211182C8.98118 0.00529671 8.63314 0.026392 8.39056 0.0791264ZM10.637 1.79299C11.6021 2.09885 12.488 2.82659 12.9415 3.69143C13.2474 4.28205 13.2527 4.26624 12.7992 4.23459C11.9765 4.17131 10.9376 4.37698 8.99173 4.97815C7.35169 5.4844 6.41302 5.69534 5.76439 5.69534H5.54818L5.57454 5.36311C5.68001 3.91819 6.46048 2.7053 7.69447 2.06194C7.91595 1.9512 8.23763 1.81409 8.40638 1.76663C9.07083 1.57151 9.97786 1.58206 10.637 1.79299ZM13.2105 5.96955L13.4214 6.03811L13.4478 6.38088C13.4636 6.57073 13.5111 6.77639 13.5533 6.84495C13.6693 7.02424 13.9171 7.15608 14.2177 7.19827C14.6923 7.26155 14.9771 7.54631 14.9771 7.95237C14.9771 8.40061 14.6923 8.66956 14.1439 8.74338C13.6007 8.81721 13.49 8.94377 13.2949 9.70315C12.931 11.1006 11.8394 12.1975 10.4472 12.5561C9.89876 12.6985 9.08138 12.6985 8.52767 12.5561C7.14075 12.1975 6.01751 11.0479 5.66947 9.62405C5.50599 8.95959 5.37415 8.81721 4.84154 8.74338C4.46712 8.69065 4.25091 8.57463 4.10853 8.35315C3.89759 8.01038 4.03997 7.47776 4.38802 7.29846C4.52513 7.22463 4.62533 7.22463 5.18958 7.28264C6.32337 7.39338 7.14603 7.251 9.52435 6.53381C10.8849 6.12776 11.3068 6.01702 12.024 5.88518C12.256 5.84299 12.9943 5.89573 13.2105 5.96955ZM9.30814 14.2699C9.99368 14.291 10.2363 14.2752 10.6212 14.1961L11.0906 14.0959L11.0589 14.734C11.0273 15.4301 10.9798 15.6252 10.7478 15.9627C10.4683 16.374 10.0095 16.6114 9.49271 16.6114C8.97591 16.6114 8.51712 16.374 8.23763 15.9627C8.0056 15.6252 7.95814 15.4301 7.9265 14.7287L7.89486 14.0854L8.17962 14.1698C8.36419 14.2225 8.77025 14.2594 9.30814 14.2699ZM18.2993 18.784C18.2993 20.2553 18.3099 20.2922 18.6474 20.519C18.7898 20.6139 18.9269 20.6192 20.6724 20.6192C23.2195 20.6192 23.0454 20.751 23.0454 18.784V17.4551H24.232H25.4185V21.4365V25.418H20.6724H15.9263V21.4365V17.4551H17.1128H18.2993V18.784ZM21.4634 18.2461V19.0371H20.6724H19.8814V18.2461V17.4551H20.6724H21.4634V18.2461Z" fill="#F4793F"/>
<path d="M3.51211 20.7193C3.43301 20.7721 3.31699 20.8881 3.26426 20.9672C3.16934 21.1096 3.16406 21.2625 3.16406 23.8096C3.16406 26.3566 3.16934 26.5096 3.26426 26.652C3.42773 26.8945 3.62813 27 3.95508 27C4.28203 27 4.48242 26.8945 4.6459 26.652C4.74082 26.5096 4.74609 26.3566 4.74609 23.8096C4.74609 21.2625 4.74082 21.1096 4.6459 20.9672C4.48242 20.7246 4.28203 20.6191 3.95508 20.6191C3.75996 20.6191 3.61758 20.6508 3.51211 20.7193Z" fill="#F4793F"/>
<path d="M6.67617 20.7193C6.43359 20.8828 6.32812 21.0832 6.32812 21.4102C6.32812 21.7371 6.43359 21.9375 6.67617 22.101C6.81855 22.1959 6.97148 22.2012 9.49219 22.2012C12.0129 22.2012 12.1658 22.1959 12.3082 22.101C12.5508 21.9375 12.6562 21.7371 12.6562 21.4102C12.6562 21.0832 12.5508 20.8828 12.3082 20.7193C12.1658 20.6244 12.0129 20.6191 9.49219 20.6191C6.97148 20.6191 6.81855 20.6244 6.67617 20.7193Z" fill="#F4793F"/>
<path d="M6.67617 23.8834C6.43359 24.0469 6.32812 24.2473 6.32812 24.5742C6.32812 24.9012 6.43359 25.1016 6.67617 25.265C6.81855 25.36 6.97148 25.3652 9.49219 25.3652C12.0129 25.3652 12.1658 25.36 12.3082 25.265C12.5508 25.1016 12.6562 24.9012 12.6562 24.5742C12.6562 24.2473 12.5508 24.0469 12.3082 23.8834C12.1658 23.7885 12.0129 23.7832 9.49219 23.7832C6.97148 23.7832 6.81855 23.7885 6.67617 23.8834Z" fill="#F4793F"/>
</g>
<defs>
<clipPath id="clip0_110_1829">
<rect width="27" height="27" fill="white"/>
</clipPath>
</defs>
</svg>
