<svg width="14" height="14" viewBox="0 0 14 14" fill="none" xmlns="http://www.w3.org/2000/svg">
<path d="M9.31515 13.2709H4.64846C2.65346 13.2709 1.87762 12.495 1.87762 10.5V5.83337C1.87762 5.59421 2.07596 5.39587 2.31512 5.39587H11.6485C11.8876 5.39587 12.086 5.59421 12.086 5.83337V10.5C12.086 12.495 11.3102 13.2709 9.31515 13.2709ZM2.75262 6.27087V10.5C2.75262 12.005 3.14346 12.3959 4.64846 12.3959H9.31515C10.8201 12.3959 11.2109 12.005 11.2109 10.5V6.27087H2.75262Z" fill="white"/>
<path d="M11.375 6.27079H2.62498C1.60415 6.27079 1.02081 5.68746 1.02081 4.66663V4.08329C1.02081 3.06246 1.60415 2.47913 2.62498 2.47913H11.375C12.3666 2.47913 12.9791 3.09163 12.9791 4.08329V4.66663C12.9791 5.65829 12.3666 6.27079 11.375 6.27079ZM2.62498 3.35413C2.09415 3.35413 1.89581 3.55246 1.89581 4.08329V4.66663C1.89581 5.19746 2.09415 5.39579 2.62498 5.39579H11.375C11.8883 5.39579 12.1041 5.17996 12.1041 4.66663V4.08329C12.1041 3.56996 11.8883 3.35413 11.375 3.35413H2.62498Z" fill="white"/>
<path d="M6.78945 3.35353H3.56946C3.44696 3.35353 3.3303 3.30103 3.24863 3.21353C2.8928 2.8227 2.90446 2.22186 3.2778 1.84853L4.10613 1.0202C4.49113 0.635195 5.12696 0.635195 5.51196 1.0202L7.09862 2.60686C7.22112 2.72936 7.26195 2.92186 7.19195 3.0852C7.12779 3.24853 6.97029 3.35353 6.78945 3.35353ZM3.8903 2.47853H5.73946L4.89363 1.63853C4.84696 1.59186 4.77113 1.59186 4.72446 1.63853L3.89613 2.46686C3.89613 2.4727 3.8903 2.4727 3.8903 2.47853Z" fill="white"/>
<path d="M10.4242 3.35353H7.20422C7.02922 3.35353 6.86588 3.24853 6.80172 3.0852C6.73172 2.92186 6.77255 2.7352 6.89505 2.60686L8.48172 1.0202C8.86672 0.635195 9.50255 0.635195 9.88755 1.0202L10.7159 1.84853C11.0892 2.22186 11.1067 2.8227 10.7451 3.21353C10.6634 3.30103 10.5467 3.35353 10.4242 3.35353ZM8.26588 2.47853H10.1151C10.1092 2.4727 10.1092 2.4727 10.1034 2.46686L9.27505 1.63853C9.22838 1.59186 9.15255 1.59186 9.10588 1.63853L8.26588 2.47853Z" fill="white"/>
<path d="M5.79915 9.85837C5.63582 9.85837 5.46665 9.81754 5.31499 9.73587C4.98249 9.55504 4.77832 9.21087 4.77832 8.83754V5.83337C4.77832 5.59421 4.97665 5.39587 5.21582 5.39587H8.73915C8.97831 5.39587 9.17665 5.59421 9.17665 5.83337V8.82587C9.17665 9.20504 8.97248 9.54921 8.63998 9.72421C8.30748 9.90504 7.90498 9.88171 7.58998 9.67171L7.07081 9.32171C7.02415 9.28671 6.95998 9.28671 6.90748 9.32171L6.35915 9.68337C6.18998 9.80004 5.99165 9.85837 5.79915 9.85837ZM5.65332 6.27087V8.83171C5.65332 8.90754 5.69999 8.94254 5.72915 8.96004C5.75832 8.97754 5.81665 8.99504 5.88081 8.95421L6.42915 8.59254C6.77331 8.36504 7.21665 8.36504 7.55498 8.59254L8.07415 8.94254C8.13831 8.98337 8.19665 8.96587 8.22581 8.94837C8.25498 8.93087 8.30165 8.89587 8.30165 8.82004V6.26504H5.65332V6.27087Z" fill="white"/>
</svg>
