<svg width="20" height="20" viewBox="0 0 20 20" fill="none" xmlns="http://www.w3.org/2000/svg">
<path d="M15.8333 3.33331H4.16659C3.70635 3.33331 3.33325 3.70641 3.33325 4.16665V5.48814C3.33325 5.70915 3.42105 5.92111 3.57733 6.07739L8.08917 10.5892C8.24545 10.7455 8.33325 10.9575 8.33325 11.1785V16.1516C8.33325 16.7711 8.98518 17.174 9.53926 16.897L11.2059 16.0636C11.4882 15.9225 11.6666 15.6339 11.6666 15.3183V11.1785C11.6666 10.9575 11.7544 10.7455 11.9107 10.5892L16.4225 6.07739C16.5788 5.92111 16.6666 5.70915 16.6666 5.48814V4.16665C16.6666 3.70641 16.2935 3.33331 15.8333 3.33331Z" stroke="#393C48" stroke-width="1.5" stroke-linecap="round" stroke-linejoin="round"/>
</svg>
