<svg width="24" height="24" viewBox="0 0 24 24" fill="none" xmlns="http://www.w3.org/2000/svg">
<path d="M15.7007 18.6683V7.03588C15.7007 6.0891 14.9332 5.32159 13.9864 5.32159H2.91838C1.97162 5.32159 1.2041 6.0891 1.2041 7.03588V18.3941C1.2041 19.3409 1.97162 20.1084 2.91838 20.1084H4.2041" stroke="#505770" stroke-width="1.5" stroke-linecap="round" stroke-linejoin="round"/>
<path d="M22.7959 13.4343H15.7031" stroke="#505770" stroke-width="1.5" stroke-linecap="round" stroke-linejoin="round"/>
<path d="M20.4888 19.7885H21.0797C22.0265 19.7885 22.794 19.021 22.794 18.0742V12.9298L20.4071 8.04256C20.1196 7.45395 19.5218 7.08063 18.8666 7.08063H16.0098" stroke="#505770" stroke-width="1.5" stroke-linecap="round" stroke-linejoin="round"/>
<path d="M6.68221 22.5532C8.0039 22.5532 9.07535 21.4817 9.07535 20.16C9.07535 18.8384 8.0039 17.7669 6.68221 17.7669C5.36051 17.7669 4.28906 18.8384 4.28906 20.16C4.28906 21.4817 5.36051 22.5532 6.68221 22.5532Z" stroke="#505770" stroke-width="1.5" stroke-linecap="round" stroke-linejoin="round"/>
<path d="M17.5455 22.5532C18.8672 22.5532 19.9386 21.4817 19.9386 20.16C19.9386 18.8384 18.8672 17.7669 17.5455 17.7669C16.2238 17.7669 15.1523 18.8384 15.1523 20.16C15.1523 21.4817 16.2238 22.5532 17.5455 22.5532Z" stroke="#505770" stroke-width="1.5" stroke-linecap="round" stroke-linejoin="round"/>
<path d="M14.7037 20.1081H9.66797" stroke="#505770" stroke-width="1.5" stroke-linecap="round" stroke-linejoin="round"/>
</svg>
