<svg width="24" height="24" viewBox="0 0 24 24" fill="none" xmlns="http://www.w3.org/2000/svg">
<g clip-path="url(#clip0_96_136)">
<path d="M12.6061 22.9433C12.2122 23.0952 11.7759 23.0952 11.382 22.9433C8.30851 21.7632 5.66528 19.6788 3.80146 16.9649C1.93762 14.2512 0.94088 11.0358 0.942874 7.74364V2.64311C0.942874 2.1922 1.122 1.75974 1.44084 1.4409C1.7597 1.12206 2.19214 0.942932 2.64305 0.942932H21.345C21.7959 0.942932 22.2284 1.12206 22.5472 1.4409C22.8661 1.75974 23.0452 2.1922 23.0452 2.64311V7.74364C23.0471 11.0358 22.0504 14.2512 20.1867 16.9649C18.3227 19.6788 15.6796 21.7632 12.6061 22.9433Z" stroke="#505770" stroke-width="1.5" stroke-linecap="round" stroke-linejoin="round"/>
</g>
<defs>
<clipPath id="clip0_96_136">
<rect width="24" height="24" fill="white"/>
</clipPath>
</defs>
</svg>
