<svg width="24" height="24" viewBox="0 0 24 24" fill="none" xmlns="http://www.w3.org/2000/svg">
<g clip-path="url(#clip0_96_129)">
<path d="M2.57122 3.42853C2.11656 3.42853 1.68053 3.60915 1.35904 3.93063C1.03755 4.25212 0.856934 4.68815 0.856934 5.14281V21.4285C0.856934 21.8832 1.03755 22.3193 1.35904 22.6407C1.68053 22.9621 2.11656 23.1428 2.57122 23.1428H21.4284C21.883 23.1428 22.3191 22.9621 22.6405 22.6407C22.962 22.3193 23.1426 21.8832 23.1426 21.4285V5.14281C23.1426 4.68815 22.962 4.25212 22.6405 3.93063C22.3191 3.60915 21.883 3.42853 21.4284 3.42853H17.9998" stroke="#505770" stroke-width="1.5" stroke-linecap="round" stroke-linejoin="round"/>
<path d="M0.856934 9.42853H23.1426" stroke="#505770" stroke-width="1.5" stroke-linecap="round" stroke-linejoin="round"/>
<path d="M6 0.857117V5.99997" stroke="#505770" stroke-width="1.5" stroke-linecap="round" stroke-linejoin="round"/>
<path d="M18 0.857117V5.99997" stroke="#505770" stroke-width="1.5" stroke-linecap="round" stroke-linejoin="round"/>
<path d="M6 3.42853H14.5714" stroke="#505770" stroke-width="1.5" stroke-linecap="round" stroke-linejoin="round"/>
</g>
<defs>
<clipPath id="clip0_96_129">
<rect width="24" height="24" fill="white"/>
</clipPath>
</defs>
</svg>
