<svg width="24" height="24" viewBox="0 0 24 24" fill="none" xmlns="http://www.w3.org/2000/svg">
<g clip-path="url(#clip0_96_171)">
<path d="M10.2855 4.28571H4.28551C3.3762 4.28571 2.50412 4.64692 1.86115 5.28992C1.21816 5.93289 0.856934 6.80497 0.856934 7.71428V19.7143C0.856934 20.6235 1.21816 21.4956 1.86115 22.1386C2.50412 22.7816 3.3762 23.1428 4.28551 23.1428H16.2855C17.1948 23.1428 18.0668 22.7816 18.7098 22.1386C19.3529 21.4956 19.7141 20.6235 19.7141 19.7143V13.7143" stroke="#393C48" stroke-width="1.5" stroke-linecap="round" stroke-linejoin="round"/>
<path d="M18.857 9.42854C21.2239 9.42854 23.1427 7.50976 23.1427 5.14283C23.1427 2.7759 21.2239 0.857117 18.857 0.857117C16.4901 0.857117 14.5713 2.7759 14.5713 5.14283C14.5713 7.50976 16.4901 9.42854 18.857 9.42854Z" stroke="#393C48" stroke-width="1.5" stroke-linecap="round" stroke-linejoin="round"/>
</g>
<defs>
<clipPath id="clip0_96_171">
<rect width="24" height="24" fill="white"/>
</clipPath>
</defs>
</svg>
