<svg width="22" height="22" viewBox="0 0 22 22" fill="none" xmlns="http://www.w3.org/2000/svg">
<g clip-path="url(#clip0_2_151)">
<path d="M1.70239 2.35713V8.64284C1.70239 9.07677 2.05417 9.42855 2.48811 9.42855H8.77382C9.20776 9.42855 9.55954 9.07677 9.55954 8.64284V2.35713C9.55954 1.92319 9.20776 1.57141 8.77382 1.57141H2.48811C2.05417 1.57141 1.70239 1.92319 1.70239 2.35713Z" stroke="white" stroke-width="2" stroke-linecap="round" stroke-linejoin="round"/>
<path d="M12.7024 2.35713V8.64284C12.7024 9.07677 13.0542 9.42855 13.4881 9.42855H19.7738C20.2078 9.42855 20.5595 9.07677 20.5595 8.64284V2.35713C20.5595 1.92319 20.2078 1.57141 19.7738 1.57141H13.4881C13.0542 1.57141 12.7024 1.92319 12.7024 2.35713Z" stroke="white" stroke-width="2" stroke-linecap="round" stroke-linejoin="round"/>
<path d="M1.70239 13.3571V19.6428C1.70239 20.0767 2.05417 20.4286 2.48811 20.4286H8.77382C9.20776 20.4286 9.55954 20.0767 9.55954 19.6428V13.3571C9.55954 12.9232 9.20776 12.5714 8.77382 12.5714H2.48811C2.05417 12.5714 1.70239 12.9232 1.70239 13.3571Z" stroke="white" stroke-width="2" stroke-linecap="round" stroke-linejoin="round"/>
<path d="M12.7024 13.3571V19.6428C12.7024 20.0767 13.0542 20.4286 13.4881 20.4286H19.7738C20.2078 20.4286 20.5595 20.0767 20.5595 19.6428V13.3571C20.5595 12.9232 20.2078 12.5714 19.7738 12.5714H13.4881C13.0542 12.5714 12.7024 12.9232 12.7024 13.3571Z" stroke="white" stroke-width="2" stroke-linecap="round" stroke-linejoin="round"/>
</g>
<defs>
<clipPath id="clip0_2_151">
<rect width="22" height="22" fill="white"/>
</clipPath>
</defs>
</svg>
