<svg width="24" height="24" viewBox="0 0 24 24" fill="none" xmlns="http://www.w3.org/2000/svg">
<path d="M21.4289 4.28577H2.57171C1.62493 4.28577 0.857422 5.05329 0.857422 6.00005V18.0001C0.857422 18.9469 1.62493 19.7143 2.57171 19.7143H21.4289C22.3757 19.7143 23.1431 18.9469 23.1431 18.0001V6.00005C23.1431 5.05329 22.3757 4.28577 21.4289 4.28577Z" stroke="#FF8146" stroke-width="1.5" stroke-linecap="round" stroke-linejoin="round"/>
<path d="M11.9999 15.4287C13.8934 15.4287 15.4284 13.8937 15.4284 12.0001C15.4284 10.1066 13.8934 8.57153 11.9999 8.57153C10.1063 8.57153 8.57129 10.1066 8.57129 12.0001C8.57129 13.8937 10.1063 15.4287 11.9999 15.4287Z" stroke="#FF8146" stroke-width="1.5" stroke-linecap="round" stroke-linejoin="round"/>
<path d="M4.75767 12.4287C4.52098 12.4287 4.3291 12.2368 4.3291 12.0001C4.3291 11.7634 4.52098 11.5715 4.75767 11.5715" stroke="#FF8146" stroke-width="1.5" stroke-linecap="round" stroke-linejoin="round"/>
<path d="M4.75781 12.4287C4.9945 12.4287 5.18638 12.2368 5.18638 12.0001C5.18638 11.7634 4.9945 11.5715 4.75781 11.5715" stroke="#FF8146" stroke-width="1.5" stroke-linecap="round" stroke-linejoin="round"/>
<path d="M19.243 12.4287C19.0063 12.4287 18.8145 12.2368 18.8145 12.0001C18.8145 11.7634 19.0063 11.5715 19.243 11.5715" stroke="#FF8146" stroke-width="1.5" stroke-linecap="round" stroke-linejoin="round"/>
<path d="M19.2432 12.4287C19.4799 12.4287 19.6717 12.2368 19.6717 12.0001C19.6717 11.7634 19.4799 11.5715 19.2432 11.5715" stroke="#FF8146" stroke-width="1.5" stroke-linecap="round" stroke-linejoin="round"/>
</svg>
