<svg width="20" height="20" viewBox="0 0 20 20" fill="none" xmlns="http://www.w3.org/2000/svg">
<path d="M11.6667 12.5L17.5001 12.5" stroke="#393C48" stroke-width="1.5" stroke-linecap="round" stroke-linejoin="round"/>
<path d="M2.5 12.5H4.16667" stroke="#393C48" stroke-width="1.5" stroke-linecap="round" stroke-linejoin="round"/>
<path d="M6.25008 14.5834C7.40067 14.5834 8.33341 13.6506 8.33341 12.5C8.33341 11.3494 7.40067 10.4167 6.25008 10.4167C5.09949 10.4167 4.16675 11.3494 4.16675 12.5C4.16675 13.6506 5.09949 14.5834 6.25008 14.5834Z" stroke="#393C48" stroke-width="1.5" stroke-linecap="round" stroke-linejoin="round"/>
<path d="M16.6667 7.5H17.5001" stroke="#393C48" stroke-width="1.5" stroke-linecap="round" stroke-linejoin="round"/>
<path d="M2.5 7.5H8.33333" stroke="#393C48" stroke-width="1.5" stroke-linecap="round" stroke-linejoin="round"/>
<path d="M13.7501 9.58335C14.9007 9.58335 15.8334 8.65061 15.8334 7.50002C15.8334 6.34943 14.9007 5.41669 13.7501 5.41669C12.5995 5.41669 11.6667 6.34943 11.6667 7.50002C11.6667 8.65061 12.5995 9.58335 13.7501 9.58335Z" stroke="#393C48" stroke-width="1.5" stroke-linecap="round" stroke-linejoin="round"/>
</svg>
