<svg width="196" height="64" viewBox="0 0 196 64" fill="none" xmlns="http://www.w3.org/2000/svg">
<g clip-path="url(#clip0_2_121)">
<path d="M27.0804 54.0153L0 27.0077L27.0804 0L54.1608 27.0077L27.0804 54.0153ZM1.89654 27.0077L27.0804 52.1239L52.2642 27.0077L27.0804 1.89145L1.89654 27.0077Z" fill="#F4793F"/>
<path d="M27.0804 58.8895L0 31.8636L27.0804 4.85596L54.1608 31.8636L27.0804 58.8895ZM1.89654 31.8636L27.0804 56.9799L52.2642 31.8636L27.0804 6.76559L1.89654 31.8636Z" fill="#F4793F"/>
<path d="M27.0804 64L0 36.9923L27.0804 9.98462L54.1608 36.9923L27.0804 64ZM1.89654 36.9923L27.0804 62.1085L52.2642 36.9923L27.0804 11.8761L1.89654 36.9923Z" fill="#F4793F"/>
<path d="M196 55.8523H58.738V57.6346H196V55.8523Z" fill="#F4793F"/>
<path d="M22.3573 33.2458V31.0815H28.3022V31.4089C28.3022 33.173 27.901 34.628 27.1169 35.7556C25.9497 37.4288 24.2356 38.2654 21.9743 38.2654C19.9684 38.2654 18.3454 37.647 17.0688 36.3921C15.8106 35.1554 15.1723 33.5186 15.1723 31.518C15.1723 29.5174 15.8106 27.8988 17.1053 26.6439C18.4001 25.389 20.0413 24.7706 22.0473 24.7706C22.9043 24.7706 23.6703 24.8798 24.3815 25.1162C25.0744 25.3526 25.658 25.6618 26.0956 26.0437C26.5333 26.4256 26.8615 26.753 27.0621 27.0076C27.2627 27.2622 27.4451 27.5351 27.6092 27.8079L25.4209 28.99C25.3115 28.8263 25.2021 28.6445 25.0562 28.4808C24.9285 28.2989 24.7097 28.0988 24.4362 27.8624C24.1626 27.626 23.8161 27.4259 23.3967 27.2804C22.9773 27.1349 22.5214 27.0622 22.029 27.0622C20.7707 27.0622 19.7495 27.4987 18.9654 28.3717C18.1812 29.2446 17.78 30.3177 17.78 31.5726C17.78 32.7183 18.1265 33.7368 18.856 34.6462C19.5672 35.5373 20.6249 35.992 22.0108 35.992C22.9773 35.992 23.7979 35.7738 24.4909 35.3191C25.1656 34.8644 25.5668 34.1733 25.6944 33.2458H22.3573Z" fill="black"/>
<path d="M38.2955 26.2983L36.9825 28.0261C36.4172 27.2986 35.7242 26.9167 34.8672 26.9167C34.2471 26.9167 33.7912 27.0622 33.5177 27.3714C33.2259 27.6805 33.0983 28.0261 33.0983 28.4262C33.0983 28.7718 33.2259 29.0628 33.4995 29.2992C33.7001 29.4992 34.2289 29.7357 35.0495 30.0267C36.326 30.4632 37.2014 30.8996 37.6755 31.3179C38.4049 31.9727 38.7879 32.882 38.7879 34.0278C38.7879 35.3009 38.3685 36.3194 37.5296 37.1014C36.6907 37.8834 35.6148 38.2654 34.2836 38.2654C32.4235 38.2654 30.9282 37.447 29.8158 35.8283L31.457 34.2642C31.7488 34.8462 32.1318 35.2827 32.6424 35.5555C33.153 35.8465 33.6636 35.9738 34.1742 35.9738C34.7577 35.9738 35.2319 35.8101 35.6148 35.4828C35.9978 35.1554 36.1801 34.7189 36.1801 34.1915C36.1801 33.7368 36.016 33.3549 35.6695 33.0275C35.3595 32.7365 34.6848 32.4274 33.6636 32.0818C32.7153 31.7544 31.9859 31.3907 31.5117 30.9542C30.8188 30.354 30.4905 29.5538 30.4905 28.5535C30.4905 27.5169 30.837 26.6075 31.5664 25.88C32.2777 25.1344 33.2989 24.7706 34.6483 24.7706C36.089 24.7888 37.3108 25.2981 38.2955 26.2983Z" fill="black"/>
<path d="M70.3908 33.3914L68.7678 35.5192C68.0748 34.6099 67.1995 34.1552 66.16 34.1552C65.3941 34.1552 64.8288 34.3371 64.4823 34.719C64.1358 35.1009 63.9535 35.5374 63.9535 36.0285C63.9535 36.465 64.1176 36.8105 64.4641 37.1015C64.7194 37.3379 65.3576 37.6471 66.3789 38.0108C67.9654 38.5565 69.0413 39.0839 69.6248 39.6113C70.5366 40.4297 70.9925 41.5391 70.9925 42.9577C70.9925 44.5218 70.4819 45.7767 69.4425 46.7588C68.403 47.7227 67.0718 48.2137 65.4306 48.2137C63.1329 48.2137 61.291 47.2135 59.9051 45.1947L61.9475 43.2487C62.294 43.958 62.7864 44.5036 63.4064 44.8492C64.0264 45.1947 64.6647 45.3766 65.3029 45.3766C66.0141 45.3766 66.6159 45.1765 67.0718 44.7582C67.5277 44.3581 67.7648 43.8125 67.7648 43.1759C67.7648 42.6122 67.5642 42.1393 67.1448 41.7392C66.7618 41.3936 65.9412 40.9935 64.6647 40.5752C63.4793 40.1751 62.5858 39.7204 62.0022 39.193C61.1634 38.4655 60.7257 37.4652 60.7257 36.2285C60.7257 34.9372 61.1634 33.8278 62.0387 32.9185C62.914 32.0091 64.1905 31.5363 65.85 31.5363C67.6554 31.5181 69.169 32.1365 70.3908 33.3914Z" fill="black"/>
<path d="M82.5724 31.8818V34.5553H76.8098V38.12H82.3353V40.7935H76.8098V45.1401H82.5724V47.8318H73.6915V31.8636H82.5724V31.8818Z" fill="black"/>
<path d="M83.8124 31.8818H87.2226L91.4898 42.594L95.757 31.8818H99.1671L92.3104 48.1956H90.6327L83.8124 31.8818Z" fill="black"/>
<path d="M108.777 47.8318L107.355 44.4854H100.9L99.4771 47.8318H96.1035L103.033 31.5363H105.386L112.133 47.8318H108.777ZM101.884 41.9574H106.443L104.182 36.2103L101.884 41.9574Z" fill="black"/>
<path d="M123.494 33.3914L121.871 35.5192C121.178 34.6099 120.303 34.1552 119.263 34.1552C118.497 34.1552 117.932 34.3371 117.585 34.719C117.239 35.1009 117.057 35.5374 117.057 36.0285C117.057 36.465 117.221 36.8105 117.567 37.1015C117.822 37.3379 118.461 37.6471 119.482 38.0108C121.068 38.5565 122.144 39.0839 122.728 39.6113C123.64 40.4297 124.096 41.5391 124.096 42.9577C124.096 44.5218 123.585 45.7767 122.546 46.7588C121.506 47.7227 120.175 48.2137 118.534 48.2137C116.236 48.2137 114.394 47.2135 113.008 45.1947L115.051 43.2487C115.397 43.958 115.889 44.5036 116.509 44.8492C117.13 45.1947 117.768 45.3766 118.406 45.3766C119.117 45.3766 119.719 45.1765 120.175 44.7582C120.631 44.3581 120.868 43.8125 120.868 43.1759C120.868 42.6122 120.667 42.1393 120.248 41.7392C119.865 41.3936 119.044 40.9935 117.768 40.5752C116.582 40.1751 115.689 39.7204 115.105 39.193C114.266 38.4655 113.829 37.4652 113.829 36.2285C113.829 34.9372 114.266 33.8278 115.142 32.9185C116.017 32.0091 117.294 31.5363 118.953 31.5363C120.777 31.5181 122.29 32.1365 123.494 33.3914Z" fill="black"/>
<path d="M135.457 34.5553H131.846V47.8318H128.728V34.5553H125.135V31.8818H135.457V34.5553Z" fill="black"/>
<path d="M138.356 33.8642C139.943 32.3001 142.003 31.5181 144.502 31.5181C147.018 31.5181 149.061 32.3001 150.647 33.8642C152.234 35.4283 153.036 37.4288 153.036 39.8659C153.036 42.3029 152.234 44.3035 150.647 45.8676C149.061 47.4317 147 48.1955 144.502 48.1955C141.985 48.1955 139.943 47.4135 138.356 45.8676C136.77 44.3035 135.967 42.3211 135.967 39.8659C135.967 37.4106 136.77 35.4283 138.356 33.8642ZM140.672 43.8307C141.657 44.8673 142.952 45.3765 144.502 45.3765C146.07 45.3765 147.346 44.8673 148.331 43.8307C149.316 42.794 149.827 41.4845 149.827 39.8659C149.827 38.2473 149.334 36.9378 148.331 35.9011C147.328 34.8645 146.052 34.337 144.502 34.337C142.952 34.337 141.675 34.8645 140.672 35.9011C139.669 36.9378 139.177 38.2654 139.177 39.8659C139.195 41.4845 139.687 42.794 140.672 43.8307Z" fill="black"/>
<path d="M155.936 31.8818H160.586C161.571 31.8818 162.391 31.9728 163.029 32.1365C163.668 32.3001 164.251 32.6275 164.817 33.1004C165.911 34.0643 166.44 35.3374 166.44 36.956C166.44 38.4473 166.002 39.6477 165.127 40.5207C164.178 41.4664 162.829 41.9392 161.078 41.9392H159.054V47.8318H155.936V31.8818ZM159.054 34.5553V39.2476H160.33C161.242 39.2476 161.917 39.0839 162.373 38.7383C162.956 38.2837 163.23 37.6653 163.23 36.8651C163.23 36.083 162.938 35.4829 162.336 35.0464C161.862 34.719 161.115 34.5371 160.13 34.5371H159.054V34.5553Z" fill="black"/>
<path d="M170.36 33.8642C171.947 32.3001 174.007 31.5181 176.506 31.5181C179.022 31.5181 181.065 32.3001 182.651 33.8642C184.238 35.4283 185.04 37.4288 185.04 39.8659C185.04 42.3029 184.238 44.3035 182.651 45.8676C181.065 47.4317 179.004 48.1955 176.506 48.1955C173.989 48.1955 171.947 47.4135 170.36 45.8676C168.774 44.3035 167.971 42.3211 167.971 39.8659C167.971 37.4106 168.774 35.4283 170.36 33.8642ZM172.676 43.8307C173.661 44.8673 174.956 45.3765 176.506 45.3765C178.074 45.3765 179.351 44.8673 180.335 43.8307C181.32 42.794 181.831 41.4845 181.831 39.8659C181.831 38.2473 181.338 36.9378 180.335 35.9011C179.332 34.8645 178.056 34.337 176.506 34.337C174.956 34.337 173.679 34.8645 172.676 35.9011C171.673 36.9378 171.181 38.2654 171.181 39.8659C171.199 41.4845 171.691 42.794 172.676 43.8307Z" fill="black"/>
<path d="M187.94 31.8818H191.058V45.1583H196V47.8318H187.94V31.8818Z" fill="black"/>
<path d="M68.9866 19.8057V17.1322H76.3357V17.5323C76.3357 19.7147 75.8433 21.5152 74.8768 22.9156C73.4361 24.989 71.3208 26.0256 68.5124 26.0256C66.0323 26.0256 64.0082 25.2618 62.4581 23.7159C60.8898 22.17 60.1239 20.1694 60.1239 17.696C60.1239 15.2225 60.9263 13.222 62.5128 11.6579C64.0993 10.112 66.1418 9.32996 68.6218 9.32996C69.6795 9.32996 70.646 9.47545 71.5031 9.76644C72.3602 10.0574 73.0714 10.4394 73.6185 10.9122C74.1656 11.3851 74.5668 11.7852 74.8221 12.0944C75.0774 12.4036 75.2962 12.7309 75.4968 13.0947L72.7796 14.5496C72.652 14.3496 72.5061 14.1313 72.342 13.9131C72.1779 13.6948 71.9226 13.4402 71.5943 13.1492C71.2661 12.8582 70.8284 12.6218 70.3178 12.4399C69.789 12.2581 69.2419 12.1671 68.6218 12.1671C67.0718 12.1671 65.8135 12.7127 64.8288 13.7858C63.844 14.8588 63.3699 16.1864 63.3699 17.7505C63.3699 19.1691 63.8076 20.4422 64.6829 21.5516C65.5582 22.661 66.8712 23.2066 68.5854 23.2066C69.789 23.2066 70.8102 22.9338 71.649 22.37C72.4879 21.8062 72.9802 20.9514 73.1444 19.8057H68.9866Z" fill="black"/>
<path d="M90.1038 25.6619L88.6814 22.3155H82.2441L80.8217 25.6619H77.4481L84.3777 9.36633H86.7302L93.4775 25.6619H90.1038ZM83.2289 19.7875H87.7878L85.5266 14.0404L83.2289 19.7875Z" fill="black"/>
<path d="M95.3375 9.71191H99.5136C100.772 9.71191 101.884 9.82104 102.833 10.0393C103.781 10.2575 104.656 10.6576 105.477 11.276C106.443 12.0035 107.209 12.931 107.738 14.0586C108.267 15.168 108.54 16.3865 108.54 17.7142C108.54 20.4968 107.464 22.6429 105.331 24.1524C104.474 24.7526 103.58 25.1709 102.687 25.3709C101.793 25.571 100.717 25.6801 99.4771 25.6801H95.3558V9.71191H95.3375ZM98.4559 12.3854V22.9884H99.4224C101.045 22.9884 102.358 22.6429 103.325 21.9336C103.945 21.4789 104.437 20.8787 104.784 20.1331C105.13 19.3692 105.313 18.569 105.313 17.696C105.313 16.8594 105.148 16.041 104.802 15.2953C104.456 14.5315 103.981 13.9131 103.343 13.4402C102.395 12.731 101.082 12.3854 99.4041 12.3854H98.4559Z" fill="black"/>
<path d="M114.011 9.71191H117.129V20.4786C117.129 22.8611 116.509 24.4616 115.251 25.3163C114.522 25.7892 113.646 26.0256 112.643 26.0256C111.239 26.0256 110.017 25.5346 108.978 24.5343L110.875 22.2609C111.276 22.8429 111.786 23.1157 112.443 23.1157C113.026 23.1157 113.428 22.9339 113.665 22.5701C113.902 22.2246 114.029 21.3516 114.029 19.9876V9.71191H114.011Z" fill="black"/>
<path d="M129.639 9.71191V12.3854H123.877V15.95H129.402V18.6235H123.877V22.9702H129.639V25.6437H120.758V9.71191H129.639Z" fill="black"/>
<path d="M141.31 12.3854H137.718V25.6619H134.581V12.3854H130.989V9.71191H141.31V12.3854Z" fill="black"/>
</g>
<defs>
<clipPath id="clip0_2_121">
<rect width="196" height="64" fill="white"/>
</clipPath>
</defs>
</svg>
