<svg width="74" height="74" viewBox="0 0 74 74" fill="none" xmlns="http://www.w3.org/2000/svg">
<g filter="url(#filter0_d_304_276)">
<rect x="36.7666" width="46.3388" height="46.3388" transform="rotate(45 36.7666 0)" fill="white"/>
</g>
<g clip-path="url(#clip0_304_276)">
<path d="M36.5332 47.6686L18.5332 29.1008L36.5332 10.533L54.5332 29.1008L36.5332 47.6686ZM19.7938 29.1008L36.5332 46.3682L53.2726 29.1008L36.5332 11.8334L19.7938 29.1008Z" fill="#F4793F"/>
<path d="M36.5332 51.0195L18.5332 32.4392L36.5332 13.8715L54.5332 32.4392L36.5332 51.0195ZM19.7938 32.4392L36.5332 49.7066L53.2726 32.4392L36.5332 15.1843L19.7938 32.4392Z" fill="#F4793F"/>
<path d="M36.5332 54.533L18.5332 35.9652L36.5332 17.3975L54.5332 35.9652L36.5332 54.533ZM19.7938 35.9652L36.5332 53.2326L53.2726 35.9652L36.5332 18.6978L19.7938 35.9652Z" fill="#F4793F"/>
<path d="M33.3939 33.3895V31.9016H37.3454V32.1267C37.3454 33.3395 37.0788 34.3398 36.5576 35.115C35.7818 36.2653 34.6424 36.8405 33.1394 36.8405C31.806 36.8405 30.7273 36.4154 29.8788 35.5526C29.0424 34.7024 28.6182 33.5771 28.6182 32.2017C28.6182 30.8263 29.0424 29.7135 29.903 28.8507C30.7636 27.988 31.8545 27.5629 33.1879 27.5629C33.7576 27.5629 34.2666 27.6379 34.7394 27.8004C35.2 27.963 35.5879 28.1755 35.8788 28.4381C36.1697 28.7007 36.3879 28.9258 36.5212 29.1008C36.6545 29.2759 36.7757 29.4634 36.8848 29.651L35.4303 30.4637C35.3576 30.3512 35.2848 30.2261 35.1879 30.1136C35.103 29.9886 34.9576 29.851 34.7757 29.6885C34.5939 29.5259 34.3636 29.3884 34.0848 29.2884C33.806 29.1883 33.503 29.1383 33.1757 29.1383C32.3394 29.1383 31.6606 29.4384 31.1394 30.0386C30.6182 30.6387 30.3515 31.3765 30.3515 32.2392C30.3515 33.0269 30.5818 33.7271 31.0666 34.3523C31.5394 34.965 32.2424 35.2776 33.1636 35.2776C33.806 35.2776 34.3515 35.1275 34.8121 34.8149C35.2606 34.5023 35.5273 34.0272 35.6121 33.3895H33.3939Z" fill="black"/>
<path d="M43.9879 28.6132L43.1152 29.801C42.7394 29.3009 42.2788 29.0383 41.7091 29.0383C41.297 29.0383 40.994 29.1383 40.8122 29.3509C40.6182 29.5634 40.5334 29.801 40.5334 30.0761C40.5334 30.3136 40.6182 30.5137 40.8 30.6763C40.9334 30.8138 41.2849 30.9763 41.8303 31.1764C42.6788 31.4765 43.2607 31.7766 43.5758 32.0641C44.0607 32.5143 44.3152 33.1395 44.3152 33.9272C44.3152 34.8024 44.0364 35.5026 43.4788 36.0403C42.9213 36.5779 42.2061 36.8405 41.3213 36.8405C40.0849 36.8405 39.091 36.2778 38.3516 35.165L39.4425 34.0897C39.6364 34.4898 39.891 34.7899 40.2304 34.9775C40.5697 35.1775 40.9091 35.2651 41.2485 35.2651C41.6364 35.2651 41.9516 35.1525 42.2061 34.9275C42.4607 34.7024 42.5819 34.4023 42.5819 34.0397C42.5819 33.7271 42.4728 33.4645 42.2425 33.2395C42.0364 33.0394 41.5879 32.8269 40.9091 32.5893C40.2788 32.3642 39.794 32.1142 39.4788 31.8141C39.0182 31.4015 38.8 30.8513 38.8 30.1636C38.8 29.4509 39.0304 28.8257 39.5152 28.3256C39.9879 27.8129 40.6667 27.5629 41.5637 27.5629C42.5213 27.5754 43.3334 27.9255 43.9879 28.6132Z" fill="black"/>
</g>
<defs>
<filter id="filter0_d_304_276" x="0" y="0" width="73.5332" height="73.533" filterUnits="userSpaceOnUse" color-interpolation-filters="sRGB">
<feFlood flood-opacity="0" result="BackgroundImageFix"/>
<feColorMatrix in="SourceAlpha" type="matrix" values="0 0 0 0 0 0 0 0 0 0 0 0 0 0 0 0 0 0 127 0" result="hardAlpha"/>
<feOffset dy="4"/>
<feGaussianBlur stdDeviation="2"/>
<feComposite in2="hardAlpha" operator="out"/>
<feColorMatrix type="matrix" values="0 0 0 0 0 0 0 0 0 0 0 0 0 0 0 0 0 0 0.25 0"/>
<feBlend mode="normal" in2="BackgroundImageFix" result="effect1_dropShadow_304_276"/>
<feBlend mode="normal" in="SourceGraphic" in2="effect1_dropShadow_304_276" result="shape"/>
</filter>
<clipPath id="clip0_304_276">
<rect width="36" height="44" fill="white" transform="translate(18.5332 10.533)"/>
</clipPath>
</defs>
</svg>
