<svg width="18" height="16" viewBox="0 0 18 16" fill="none" xmlns="http://www.w3.org/2000/svg">
<g clip-path="url(#clip0_63_195)">
<path d="M16.5832 0.178143L0.700278 6.62976C0.700278 6.62976 -0.0532254 6.89397 0.00610561 7.38552C0.0654366 7.87707 0.676546 8.10441 0.676546 8.10441L4.66952 9.49919L4.67545 9.50533V9.49919L14.2633 3.1889C14.2633 3.1889 14.8151 2.83867 14.7973 3.1889C14.7973 3.1889 14.8982 3.25034 14.6015 3.53913C14.3049 3.82791 7.06649 10.5622 7.06649 10.5622L7.05462 10.6912L13.5692 15.8648C14.6549 16.3563 15.0524 15.3302 15.0524 15.3302L17.8825 0.56524C17.8825 -0.417863 16.5772 0.178143 16.5832 0.178143Z" fill="white"/>
<path d="M9.54637 12.6697L6.96547 15.1091C6.96547 15.1091 6.76374 15.2688 6.54422 15.1705L7.03667 10.6421" fill="white"/>
</g>
<defs>
<clipPath id="clip0_63_195">
<rect width="17.8824" height="16" fill="white"/>
</clipPath>
</defs>
</svg>
