<svg width="32" height="32" viewBox="0 0 32 32" fill="none" xmlns="http://www.w3.org/2000/svg">
<path d="M16 21C13.2386 21 11 18.7614 11 16C11 13.2386 13.2386 11 16 11C18.7614 11 21 13.2386 21 16C21 17.3261 20.4732 18.5979 19.5355 19.5355C18.5979 20.4732 17.3261 21 16 21ZM16 13C14.3431 13 13 14.3431 13 16C13 17.6569 14.3431 19 16 19C17.6569 19 19 17.6569 19 16C19 14.3431 17.6569 13 16 13Z" fill="white"/>
<path d="M27.42 19.6901C25.7583 24.8233 20.875 28.2163 15.4845 27.9831C10.0941 27.7498 5.52208 23.9476 4.31 18.6901L6.58 18.2401L2.26 13.7701L0 19.5501L2.39 19.0801C3.76222 25.253 9.10218 29.7398 15.4193 30.0276C21.7364 30.3154 27.4622 26.3327 29.39 20.3101L27.42 19.6901ZM29.65 12.9201C28.2778 6.74706 22.9378 2.2603 16.6207 1.97252C10.3036 1.68474 4.5778 5.6674 2.65 11.6901L4.55 12.3101C6.2117 7.17682 11.095 3.78378 16.4855 4.01703C21.8759 4.25028 26.4479 8.05247 27.66 13.3101L25.39 13.7601L29.71 18.2201L32 12.4501L29.65 12.9201Z" fill="white"/>
</svg>
